<?xml version="1.0" encoding="iso-8859-1"?>
<!-- Uploaded to: SVG Repo, www.svgrepo.com, Generator: SVG Repo Mixer Tools -->
<!DOCTYPE svg PUBLIC "-//W3C//DTD SVG 1.1//EN" "http://www.w3.org/Graphics/SVG/1.1/DTD/svg11.dtd">
<svg fill="#000000" height="50px" width="60px" version="1.1" id="Capa_1" xmlns="http://www.w3.org/2000/svg" xmlns:xlink="http://www.w3.org/1999/xlink" 
	 viewBox="0 0 900 450" xml:space="preserve">
<path d="M58.554,171.113V97.076c0-4.418,3.582-8,8-8h51.317c10.415-15.835,9.946-39.183-1.617-49.974
	c-3.23-3.014-3.405-8.076-0.391-11.307c3.015-3.231,8.077-3.407,11.307-0.391c20.515,19.143,16.998,54.718,1.01,74.673
	c-11.791,14.709-14.728,40.725-1.01,53.526c3.23,3.015,3.405,8.077,0.39,11.307c-3.015,3.229-8.077,3.405-11.307,0.391
	c-9.512-8.877-14.54-22.088-14.156-37.198c0.219-8.616,2.225-17.245,5.712-25.027H74.554v66.036c0,4.418-3.582,8-8,8
	S58.554,175.53,58.554,171.113z M159.734,167.302c1.542,1.439,3.501,2.151,5.457,2.151c2.14,0,4.275-0.854,5.85-2.542
	c3.015-3.229,2.84-8.292-0.39-11.307c-13.717-12.801-10.782-38.816,1.006-53.525c15.991-19.954,19.51-55.529-1.006-74.674
	c-3.23-3.017-8.292-2.841-11.307,0.391c-3.014,3.23-2.839,8.293,0.391,11.307c12.318,11.495,12.045,37.238-0.563,52.971
	c-8.289,10.342-13.243,24.204-13.594,38.03C145.195,145.214,150.222,158.425,159.734,167.302z M119.808,298.336
	c-13.249,18.509-34.743,29.655-57.528,29.844c-0.081,0.003-0.161,0.004-0.242,0.004c-0.714,0-1.438-0.096-2.152-0.297
	c-0.266-0.074-0.526-0.161-0.781-0.262c-27.463-10.521-48.394-33.729-55.995-62.097c-7.608-28.397-1.068-58.991,17.497-81.84
	c2.179-2.683,5.835-3.662,9.063-2.429c26.457,10.106,46.382,31.218,54.89,58.073c11.06-6.839,23.939-10.653,37.251-10.726
	c0.015,0,0.029,0,0.044,0c3.438,0,6.494,2.198,7.586,5.462C136.695,255.748,133.094,279.774,119.808,298.336z M64.084,258.452
	c2.13-2.977,4.474-5.763,7.002-8.344c-0.002-0.007-0.004-0.014-0.006-0.021c-0.147-0.549-0.737-2.505-1.1-3.711l-0.273-0.911
	c-6.217-20.879-20.73-37.698-40.255-46.919c-12.573,18.243-16.656,41.309-10.887,62.841c4.928,18.392,16.642,34.159,32.425,44.294
	C49.687,289.059,54.211,272.247,64.084,258.452z M115.869,244.971c-15.456,1.784-29.641,10.034-38.774,22.794
	c-9.132,12.76-12.366,28.849-9.07,44.053c15.455-1.785,29.639-10.035,38.772-22.794
	C115.929,276.264,119.164,260.176,115.869,244.971z M353.437,197.449v22.358c0,30.04-24.44,54.479-54.482,54.479h-38.479v45.895
	c0,4.418-3.582,8-8,8H135.852c-4.418,0-8-3.582-8-8s3.582-8,8-8h108.624V105.076h-40.187c-4.418,0-8-3.582-8-8s3.582-8,8-8h48.187
	c4.418,0,8,3.582,8,8v45.894h38.479C328.996,142.97,353.437,167.409,353.437,197.449z M337.437,197.449
	c0-21.218-17.263-38.479-38.482-38.479h-38.479v99.317h38.479c21.22,0,38.482-17.262,38.482-38.479V197.449z"/>
</svg>